<svg xmlns="http://www.w3.org/2000/svg" width="1455" height="513" viewBox="0 0 1455 513">
  <defs>
    <style>
      .cls-1, .cls-2, .cls-3, .cls-4, .cls-5, .cls-6 {
        fill-rule: evenodd;
      }

      .cls-2 {
        fill: #fd74c3;
      }

      .cls-3 {
        fill: #009fff;
      }

      .cls-4 {
        fill: #38e034;
      }

      .cls-5 {
        fill: #ffe500;
      }

      .cls-6 {
        fill: #fe151c;
      }
    </style>
  </defs>
  <path id="Outline" class="cls-1" d="M0.741,27.324L29.012,225.39,56.65,276.106l18.975-1.617,7.332,76.353,25.219,54.875,38.749-5.579,0.629,52.884,22.981,50.521,101.535-8.536-20.217-111,23.96-3.823,17.09,78.179,17.054,50.727,81.835-13.5L385,442l1.718,0.387,13.935,59.868,76.93-5.935,141.106,7.122-11.783-96.283,5.38,1.175L628.2,329.3l-4.894-53.931,19.69-2,1.99,42.522L672.4,507.383l121.749-10.962,33.825-35.278,11.653,34.788,149.351,7.533,3.422-17.727,39.644,18.225,20.93-68.752,17.46,28.73,23.97-22.8,0.61,68.871,99.02-8.537,4.02-11.148,61.69,21.985,84.51-36.363,24.84-50.988,13.11-101.091-52.54-55.357,35.81-3.24,51.96-55.248,27.96-51.694,8.78-97.269L1349.09,1.147,1238.23,27.178l-2.68,7.247L1132,19.4l-19.08,61.77-46.91-48.628L977.767,20.525,911.026,96.252l-3.289,18.814-39.653,11.828L865.9,7.084l-73.471,9.409V2.044L690.036,10.6l0.945,45.336-34.2-48.565L569.5,35.605l1.155,6.209-50.712-13.66-15,63.7L486.458,60.329,467.485,82.617,465.5,57.956,453.835,0.664,340.926,19.052l5.742,26.939-12.28-13.357-88.38-12.176L212.484,58.4,112.47,1.215Z"/>
  <path id="Pink" class="cls-2" d="M792.761,31.109L792.1,138.765l9.671,67.065,131.188-9.75,2-73.668-81.431,24.381L851.2,24.09ZM287.437,263.146l5.237,55.831-14.006,2.6,26.33,120,55.216-9.607-6.851-54.007L393.94,368l6.9,67.268,52.313-4.234,1.9-177.025-72.192,4.066,6.381,63.8-42.31,0-8.412-67.955Zm954.873,4.475-46.93,53.542,13.52,99.231,72.48,25.865,74.06-32.127,10.58-85.489-48.22-50.42Zm50.09,56.539-43.36,13.9,0.62,41.751,34.33,13.817,30.99-29.665Z"/>
  <path id="Blue" class="cls-3" d="M586.61,45.382L617.7,54.126l-19.96,62.017L613.526,210.3l59.445-4.862-7.916-74.1,60,73.365,52-17.177L777.55,18.143,706.1,24.5l8.638,89.84L650.924,25.163ZM89.618,260.742l7.132,72.967,64.216-9.523,1.47,112.713,71.688-6.606L213.4,316.117l62.555-9.97-4.963-54.674ZM989.151,375.31l5.457,38.247,39.6,18.99,26.98-89.047,26.94,44.1,37.21-35.346,0.52,91.179,69.82-6.4L1172.42,268.3l-44.61-6.492-31.09,47.468-14.71-53.282-47.06-7.3Z"/>
  <path id="Green" class="cls-4" d="M252,36.605L216.009,77.455l-9.1,82.528L212.07,187.1l79.06,28.271,74.086-32.214,10.972-86.06-48.75-49.862Zm49.906,56.472L258.753,107.04l0.8,41.756,34.222,13.448,30.612-29.61ZM659.322,269.964l24.344,170.615L789.5,431.47l46.378-49.524,7.335-81.925-91.73-51.807Zm72.686,38.59,6.928,83.612L774,379.055l9.372-50.776ZM1142.41,36.36l-20.32,67.808-11.62,92.574,43.45,9.811,6.65-33.807,43.62-4.084,7.8,38.221,63.38-6.266L1228.9,48.423Zm27.99,90.877,27.07,3.232-7.98-40.405-11.36-1.818Z"/>
  <path id="Yellow" class="cls-5" d="M358.841,31.569l6.766,33.4L392.03,92.29l-7.5,60.129,8.343,41.8,60.369,7.2,24.287-41.177,17.584,45.872,58.356-3.941L598.514,64.017,531.085,46.343,510.8,131.8,483.806,86.007,449,126.656l-8.44-108.6Zm499.68,234.6-5.3,22,5.827,3.943-8.351,96.863-6.659,6.264,11.441,35.229,127.016,6.414-6.948-49.758-67.574,6.323-3.749-19.993,50.259,6.942,8.933-40.791-56.473-2.313,6.94-20.064,64.164,18.091L992.1,285.094ZM1254.65,39.306L1265.88,119l27.54,89.349,91.78-8.183,46.49-49.259,6.49-81.577-91.2-52.2Zm72.39,37.9,51.77,19.967-9.89,50.72-34.13,13.582Z"/>
  <path id="Red" class="cls-6" d="M17.441,39.023l92.784-21.716,91.619,52.1L192.586,155.2,148,199.972,41.857,209.834ZM90.455,77.808L141.9,97.091l-9.8,50.707L97.811,161.45Zm381.8,188.1-2.78,9.9-1.387,150.5,0.787,4.243,126.83,6.3-6.722-49.272-67.46,5.873-3.491-20.431,50.018,8.07,8.948-41.5-56.724-2.225,7.161-20.163L595.2,335.09l10.088-49.9ZM984.2,36.139L926.37,101.383l1.794,7.9,22.2-6.96-2.3,85.989,74.659,26.958,73.69-28.291,11.13-89.908-48.67-50.653Zm6.271,71.071,43.462-14.175,22.02,39.507-30.48,30.432-34.4-14.306Z"/>
</svg>
